<?xml version="1.0" encoding="utf-8"?>
<!-- Generator: Adobe Illustrator 24.0.3, SVG Export Plug-In . SVG Version: 6.00 Build 0)  -->
<svg version="1.1" xmlns="http://www.w3.org/2000/svg" xmlns:xlink="http://www.w3.org/1999/xlink" x="0px" y="0px"
	 viewBox="0 0 595.28 841.89" style="enable-background:new 0 0 595.28 841.89;" xml:space="preserve">
<style type="text/css">
	.st0{fill:#F59A34;}
	.st1{fill:#95C11F;}
	.st2{fill:#71260D;}
	.st3{fill:none;stroke:#000000;stroke-width:5.6693;stroke-miterlimit:10;}
	.st4{fill:#EC606C;}
	.st5{fill:#FFFFFF;}
</style>
<g id="Onderkant_broodje_1_">
	<path id="Onderkant_broodje" class="st0" d="M414.61,371.78c-36.47,5.03-77.29,8.36-121.76,8.32
		c-43.91-0.04-84.24-3.34-120.34-8.32c-1.57-4.31-3.83-11.96-3.96-21.86c-0.14-10.86,2.35-19.22,3.96-23.64
		c36.05,5.03,76.38,8.39,120.34,8.42c44.52,0.04,85.34-3.34,121.76-8.42c1.55,4.64,3.69,12.74,3.64,23.12
		C418.2,359.39,416.13,367.2,414.61,371.78z"/>
</g>
<g id="Sla_1_">
	<path id="Sla_2_" class="st1" d="M414.77,334.3c-7.73,4.6-14.2,5.82-18.73,6.08c-9.19,0.51-11.74-2.9-20.01-1.17
		c-8.78,1.84-9.64,6.48-15.95,5.81c-6.33-0.67-7.59-5.56-14.21-5.51c-4.79,0.03-5.15,2.59-10.15,2.61
		c-6.18,0.02-6.77-3.88-13.03-4.52c-6.06-0.62-6.89,2.9-15.68,3.36c-5.44,0.29-5.51-1.04-10.73-0.58
		c-7.34,0.64-8.15,3.34-13.34,3.48c-7.54,0.2-8.18-5.44-15.93-6.2c-8.56-0.83-10.38,5.79-19.16,5.04c-7.4-0.63-7.86-5.48-15.37-5.8
		c-6.94-0.3-7.33,4.43-15.66,4.35c-7.09-0.07-9.67-2.9-17.11-2.03c-5.96,0.7-6.78,2.8-11.31,2.9c-4.18,0.09-9.47-1.57-15.71-7.82
		c-2.3-0.82-3.83-2.95-3.96-5.35c-0.14-2.66,2.35-4.7,3.96-5.78c36.05,1.23,76.38,2.05,120.34,2.06
		c44.52,0.01,85.34-0.82,121.76-2.06c1.55,1.13,3.69,3.12,3.64,5.66C418.36,331.27,416.3,333.18,414.77,334.3z"/>
</g>
<g id="Burger">
	<path id="Onderkant_broodje_2_" class="st2" d="M419.69,324.23c-41.01,1.33-83.31,2.05-126.83,2.05
		c-43.02-0.01-84.85-0.73-125.42-2.05c-1.64-3.46-3.99-9.59-4.13-17.54c-0.15-8.72,2.45-15.42,4.13-18.97
		c39.75,2.27,81.8,3.59,125.93,3.6c44.28,0,86.45-1.32,126.32-3.6c1.61,3.72,3.85,10.22,3.79,18.55
		C423.43,314.29,421.28,320.56,419.69,324.23z"/>
</g>
<g id="Bovenkant_broodje_1_">
	<path id="Bovenkant_broodje_2_" class="st0" d="M414.25,291.31c4.04-62.56-54.06-115.01-122.82-114.04
		c-67.32,0.95-122.87,52.81-118.88,114.04c38.14,2.31,78.54,3.66,120.98,3.66C335.88,294.96,376.19,293.61,414.25,291.31z"/>
</g>
<g id="Mond">
	<path class="st3" d="M269.11,349.77c3.16,9.86,13.12,16.69,24.36,16.73c11.31,0.04,21.36-6.81,24.54-16.73"/>
	<g>
		<ellipse cx="373.37" cy="152.72" rx="3.92" ry="6.32"/>
		<ellipse cx="421" cy="152.72" rx="3.92" ry="6.32"/>
		<path d="M397.19,184.92c-7.62,0-16.47-9.26-14.8-21.35h29.59C413.65,175.67,404.81,184.92,397.19,184.92z"/>
		<ellipse class="st4" cx="421" cy="163.85" rx="7.17" ry="6.15"/>
		<ellipse class="st4" cx="373.37" cy="163.85" rx="7.17" ry="6.15"/>
	</g>
</g>
<g id="Oog_links">
	<ellipse id="Oog_Links_3_" class="st5" cx="265.26" cy="259.44" rx="14.4" ry="23.33"/>
</g>
<g id="Oog_rechts">
	<ellipse id="Oog_Links_2_" class="st5" cx="321.77" cy="259.44" rx="14.4" ry="23.33"/>
</g>
<g id="Pupil_rechts">
	<path id="pupil_links_2_" d="M336.16,260.75c0.33,1.31-0.01,2.82-0.62,5.84c-0.95,4.69-2.72,7.86-3.33,8.89
		c-1.35,2.3-2.31,3.92-4.34,5.3c-0.79,0.54-3.05,2.03-6.11,1.99c-4.53-0.07-7.54-3.45-8.72-4.77c-2.1-2.36-2.97-4.84-3.86-7.37
		c-0.21-0.59-0.93-2.7-1.39-5.59c-0.36-2.25-0.55-3.38-0.42-4.31c0.61-4.2,7.86-7.84,14.4-7.83
		C327.62,252.92,334.93,255.86,336.16,260.75z"/>
</g>
<g id="Pupil_links">
	<path id="pupil_links_3_" d="M279.66,260.75c0.33,1.31-0.01,2.82-0.62,5.84c-0.95,4.69-2.72,7.86-3.33,8.89
		c-1.35,2.3-2.31,3.92-4.34,5.3c-0.79,0.54-3.05,2.03-6.11,1.99c-4.53-0.07-7.54-3.45-8.72-4.77c-2.1-2.36-2.97-4.84-3.86-7.37
		c-0.21-0.59-0.93-2.7-1.39-5.59c-0.36-2.25-0.55-3.38-0.42-4.31c0.61-4.2,7.86-7.84,14.4-7.83
		C271.12,252.92,278.43,255.86,279.66,260.75z"/>
</g>
</svg>
