<?xml version="1.0" encoding="utf-8"?>
<!-- Generator: Adobe Illustrator 24.0.3, SVG Export Plug-In . SVG Version: 6.00 Build 0)  -->
<svg version="1.1" xmlns="http://www.w3.org/2000/svg" xmlns:xlink="http://www.w3.org/1999/xlink" x="0px" y="0px"
	 viewBox="0 0 595.28 841.89" style="enable-background:new 0 0 595.28 841.89;" xml:space="preserve">
<style type="text/css">
	.st0{fill:#FAEF7C;}
	.st1{fill:#E84424;}
	.st2{fill:#FEC600;}
	.st3{fill:#FFFFFF;}
	.st4{fill:none;stroke:#000000;stroke-width:5.6693;stroke-miterlimit:10;}
</style>
<g id="Voorbeeld">
</g>
<g id="Bodem_1_">
	<path id="Bodem" class="st0" d="M286.49,551.38c0,0-68.19-167.67-159.48-388.46H445.3C356.04,380.78,286.49,551.38,286.49,551.38z"
		/>
</g>
<g id="Salami_1">
	<circle class="st1" cx="396.67" cy="197.85" r="27.83"/>
	<circle class="st1" cx="197.86" cy="239.07" r="27.2"/>
	<path class="st1" d="M331.54,430.81c-1.19,0.23-2.07,0.2-3.11,0.15c-10.2-0.43-25.8-8.67-25.8-21.39
		c0-12.49,13.56-23.82,25.8-21.39c9.72,1.93,14.39,11.73,15,13.05c-0.67,1.78-1.35,3.56-2.04,5.34
		C338.19,414.86,334.9,422.93,331.54,430.81z"/>
	<circle class="st1" cx="323.03" cy="343.82" r="27.2"/>
	<path class="st1" d="M182.87,308.48c0.54-0.8,1.05-1.27,1.65-1.83c5.94-5.49,19.26-9.66,26.4-2.56c7.02,6.97,5.82,20.9-2.38,26.42
		c-6.51,4.38-14.61,1.54-15.7,1.14c-0.62-1.37-1.24-2.74-1.86-4.13C188.12,321.11,185.42,314.76,182.87,308.48z"/>
</g>
<g id="Korst">
	<path class="st2" d="M449.18,197.85c-45.79-10.13-101.26-18.03-164.29-18.02c-63,0-118.44,7.9-164.21,18.02
		c-1.02-0.97-12.61-12.35-11.94-31.51c0.61-17.15,10.57-26.88,11.94-28.17c48.28-7.59,103.13-12.82,163.44-12.86
		c60.96-0.05,116.37,5.21,165.07,12.86c8.88,5.81,14.46,17.42,14.42,30C463.55,180.63,457.99,192.09,449.18,197.85z"/>
</g>
<g id="Oog_rechts">
</g>
<g id="Oog_links">
	<g>
		<ellipse id="Oog_Links_2_" class="st3" cx="313.75" cy="273.08" rx="17.37" ry="28.16"/>
		<path id="pupil_links_2_" d="M331.13,274.66c0.4,1.58-0.01,3.4-0.75,7.05c-1.15,5.67-3.28,9.48-4.02,10.74
			c-1.63,2.78-2.78,4.73-5.24,6.4c-0.96,0.65-3.68,2.45-7.38,2.4c-5.47-0.08-9.1-4.16-10.52-5.76c-2.54-2.85-3.59-5.84-4.66-8.89
			c-0.25-0.71-1.12-3.25-1.68-6.74c-0.44-2.72-0.67-4.08-0.51-5.2c0.73-5.07,9.48-9.47,17.38-9.45
			C320.82,265.22,329.64,268.76,331.13,274.66z"/>
	</g>
	<g>
		<ellipse id="Oog_Links_1_" class="st3" cx="261.79" cy="273.08" rx="17.37" ry="28.16"/>
		<path id="pupil_links_1_" d="M279.17,274.66c0.4,1.58-0.01,3.4-0.75,7.05c-1.15,5.67-3.28,9.48-4.02,10.74
			c-1.63,2.78-2.78,4.73-5.24,6.4c-0.96,0.65-3.68,2.45-7.38,2.4c-5.47-0.08-9.1-4.16-10.52-5.76c-2.54-2.85-3.59-5.84-4.66-8.89
			c-0.25-0.71-1.12-3.25-1.68-6.74c-0.44-2.72-0.67-4.08-0.51-5.2c0.73-5.07,9.48-9.47,17.38-9.45
			C268.85,265.22,277.67,268.76,279.17,274.66z"/>
	</g>
</g>
<g id="Mond">
	<path class="st4" d="M258.31,335.56c3.82,11.9,15.84,20.15,29.41,20.19c13.65,0.04,25.78-8.22,29.62-20.19"/>
</g>
</svg>
